<mxfile host="app.diagrams.net" modified="2022-04-12T16:28:31.733Z" agent="5.0 (Windows)" etag="KpYBQPPwMWPlYVuxPUY6" version="17.4.0" type="github">
  <diagram id="1F8ciL9s2FjEEY8_LXBs" name="Page-1">
    <mxGraphModel dx="1422" dy="772" grid="1" gridSize="10" guides="1" tooltips="1" connect="1" arrows="1" fold="1" page="1" pageScale="1" pageWidth="850" pageHeight="1100" math="0" shadow="0">
      <root>
        <mxCell id="0" />
        <mxCell id="1" parent="0" />
        <mxCell id="JV0h0NrlIhEVmCYAis9z-1" value="" style="shape=folder;fontStyle=1;spacingTop=10;tabWidth=40;tabHeight=20;tabPosition=left;html=1;" vertex="1" parent="1">
          <mxGeometry x="140" y="70" width="240" height="160" as="geometry" />
        </mxCell>
        <mxCell id="JV0h0NrlIhEVmCYAis9z-2" value="" style="shape=folder;fontStyle=1;spacingTop=10;tabWidth=80;tabHeight=20;tabPosition=left;html=1;" vertex="1" parent="1">
          <mxGeometry x="140" y="260" width="250" height="165" as="geometry" />
        </mxCell>
        <mxCell id="JV0h0NrlIhEVmCYAis9z-4" value="" style="shape=folder;fontStyle=1;spacingTop=10;tabWidth=80;tabHeight=20;tabPosition=left;html=1;" vertex="1" parent="1">
          <mxGeometry x="450" y="260" width="230" height="160" as="geometry" />
        </mxCell>
        <mxCell id="JV0h0NrlIhEVmCYAis9z-5" value="&lt;div align=&quot;left&quot;&gt;&lt;br&gt;&lt;/div&gt;" style="shape=folder;fontStyle=1;spacingTop=10;tabWidth=80;tabHeight=20;tabPosition=left;html=1;align=left;" vertex="1" parent="1">
          <mxGeometry x="140" y="510" width="250" height="150" as="geometry" />
        </mxCell>
        <mxCell id="JV0h0NrlIhEVmCYAis9z-45" style="edgeStyle=orthogonalEdgeStyle;rounded=0;orthogonalLoop=1;jettySize=auto;html=1;exitX=0;exitY=0.5;exitDx=0;exitDy=0;entryX=0;entryY=0.75;entryDx=0;entryDy=0;fontSize=13;" edge="1" parent="1" source="JV0h0NrlIhEVmCYAis9z-6" target="JV0h0NrlIhEVmCYAis9z-24">
          <mxGeometry relative="1" as="geometry">
            <Array as="points">
              <mxPoint x="110" y="145" />
              <mxPoint x="110" y="343" />
            </Array>
          </mxGeometry>
        </mxCell>
        <mxCell id="JV0h0NrlIhEVmCYAis9z-6" value="login" style="rounded=1;whiteSpace=wrap;html=1;" vertex="1" parent="1">
          <mxGeometry x="180" y="130" width="50" height="30" as="geometry" />
        </mxCell>
        <mxCell id="JV0h0NrlIhEVmCYAis9z-41" style="edgeStyle=orthogonalEdgeStyle;rounded=0;orthogonalLoop=1;jettySize=auto;html=1;exitX=0.5;exitY=1;exitDx=0;exitDy=0;fontSize=13;" edge="1" parent="1" source="JV0h0NrlIhEVmCYAis9z-7" target="JV0h0NrlIhEVmCYAis9z-25">
          <mxGeometry relative="1" as="geometry" />
        </mxCell>
        <mxCell id="JV0h0NrlIhEVmCYAis9z-7" value="&lt;div&gt;main menu&lt;/div&gt;" style="rounded=1;whiteSpace=wrap;html=1;" vertex="1" parent="1">
          <mxGeometry x="235" y="100" width="50" height="30" as="geometry" />
        </mxCell>
        <mxCell id="JV0h0NrlIhEVmCYAis9z-42" style="edgeStyle=orthogonalEdgeStyle;rounded=0;orthogonalLoop=1;jettySize=auto;html=1;exitX=1;exitY=0.5;exitDx=0;exitDy=0;entryX=1;entryY=0.5;entryDx=0;entryDy=0;fontSize=13;" edge="1" parent="1" source="JV0h0NrlIhEVmCYAis9z-8" target="JV0h0NrlIhEVmCYAis9z-26">
          <mxGeometry relative="1" as="geometry" />
        </mxCell>
        <mxCell id="JV0h0NrlIhEVmCYAis9z-8" value="game" style="rounded=1;whiteSpace=wrap;html=1;" vertex="1" parent="1">
          <mxGeometry x="300" y="130" width="50" height="30" as="geometry" />
        </mxCell>
        <mxCell id="JV0h0NrlIhEVmCYAis9z-43" style="edgeStyle=orthogonalEdgeStyle;rounded=0;orthogonalLoop=1;jettySize=auto;html=1;exitX=0.5;exitY=1;exitDx=0;exitDy=0;fontSize=13;" edge="1" parent="1" source="JV0h0NrlIhEVmCYAis9z-9" target="JV0h0NrlIhEVmCYAis9z-27">
          <mxGeometry relative="1" as="geometry" />
        </mxCell>
        <mxCell id="JV0h0NrlIhEVmCYAis9z-9" value="saved games" style="rounded=1;whiteSpace=wrap;html=1;" vertex="1" parent="1">
          <mxGeometry x="270" y="190" width="50" height="30" as="geometry" />
        </mxCell>
        <mxCell id="JV0h0NrlIhEVmCYAis9z-44" style="edgeStyle=orthogonalEdgeStyle;rounded=0;orthogonalLoop=1;jettySize=auto;html=1;exitX=0.5;exitY=1;exitDx=0;exitDy=0;fontSize=13;" edge="1" parent="1" source="JV0h0NrlIhEVmCYAis9z-11" target="JV0h0NrlIhEVmCYAis9z-28">
          <mxGeometry relative="1" as="geometry" />
        </mxCell>
        <mxCell id="JV0h0NrlIhEVmCYAis9z-11" value="create account" style="rounded=1;whiteSpace=wrap;html=1;" vertex="1" parent="1">
          <mxGeometry x="200" y="190" width="50" height="30" as="geometry" />
        </mxCell>
        <mxCell id="JV0h0NrlIhEVmCYAis9z-24" value="login" style="rounded=1;whiteSpace=wrap;html=1;" vertex="1" parent="1">
          <mxGeometry x="170" y="320" width="50" height="30" as="geometry" />
        </mxCell>
        <mxCell id="JV0h0NrlIhEVmCYAis9z-25" value="&lt;div&gt;main menu&lt;/div&gt;" style="rounded=1;whiteSpace=wrap;html=1;" vertex="1" parent="1">
          <mxGeometry x="235" y="290" width="50" height="30" as="geometry" />
        </mxCell>
        <mxCell id="JV0h0NrlIhEVmCYAis9z-26" value="game" style="rounded=1;whiteSpace=wrap;html=1;" vertex="1" parent="1">
          <mxGeometry x="300" y="320" width="50" height="30" as="geometry" />
        </mxCell>
        <mxCell id="JV0h0NrlIhEVmCYAis9z-27" value="saved games" style="rounded=1;whiteSpace=wrap;html=1;" vertex="1" parent="1">
          <mxGeometry x="270" y="380" width="50" height="30" as="geometry" />
        </mxCell>
        <mxCell id="JV0h0NrlIhEVmCYAis9z-28" value="create account" style="rounded=1;whiteSpace=wrap;html=1;" vertex="1" parent="1">
          <mxGeometry x="200" y="380" width="50" height="30" as="geometry" />
        </mxCell>
        <mxCell id="JV0h0NrlIhEVmCYAis9z-29" value="&lt;font style=&quot;font-size: 13px&quot;&gt;game instance&lt;/font&gt;" style="rounded=1;whiteSpace=wrap;html=1;fontSize=18;" vertex="1" parent="1">
          <mxGeometry x="540" y="360" width="80" height="40" as="geometry" />
        </mxCell>
        <mxCell id="JV0h0NrlIhEVmCYAis9z-33" style="edgeStyle=orthogonalEdgeStyle;rounded=0;orthogonalLoop=1;jettySize=auto;html=1;exitX=1;exitY=0.75;exitDx=0;exitDy=0;entryX=0.5;entryY=1;entryDx=0;entryDy=0;fontSize=13;" edge="1" parent="1" source="JV0h0NrlIhEVmCYAis9z-30" target="JV0h0NrlIhEVmCYAis9z-29">
          <mxGeometry relative="1" as="geometry" />
        </mxCell>
        <mxCell id="JV0h0NrlIhEVmCYAis9z-34" style="edgeStyle=orthogonalEdgeStyle;rounded=0;orthogonalLoop=1;jettySize=auto;html=1;exitX=1;exitY=0.25;exitDx=0;exitDy=0;fontSize=13;" edge="1" parent="1" source="JV0h0NrlIhEVmCYAis9z-30" target="JV0h0NrlIhEVmCYAis9z-31">
          <mxGeometry relative="1" as="geometry" />
        </mxCell>
        <mxCell id="JV0h0NrlIhEVmCYAis9z-36" style="edgeStyle=orthogonalEdgeStyle;rounded=0;orthogonalLoop=1;jettySize=auto;html=1;exitX=0.5;exitY=0;exitDx=0;exitDy=0;fontSize=13;" edge="1" parent="1" source="JV0h0NrlIhEVmCYAis9z-30" target="JV0h0NrlIhEVmCYAis9z-27">
          <mxGeometry relative="1" as="geometry" />
        </mxCell>
        <mxCell id="JV0h0NrlIhEVmCYAis9z-30" value="saved games" style="rounded=1;whiteSpace=wrap;html=1;fontSize=12;" vertex="1" parent="1">
          <mxGeometry x="212.5" y="570" width="87.5" height="50" as="geometry" />
        </mxCell>
        <mxCell id="JV0h0NrlIhEVmCYAis9z-31" value="&lt;font style=&quot;font-size: 12px&quot;&gt;User&lt;/font&gt;" style="rounded=1;whiteSpace=wrap;html=1;fontSize=18;" vertex="1" parent="1">
          <mxGeometry x="480" y="300" width="80" height="40" as="geometry" />
        </mxCell>
        <mxCell id="JV0h0NrlIhEVmCYAis9z-37" value="&lt;font style=&quot;font-size: 10px&quot;&gt;repositories&lt;/font&gt;" style="text;strokeColor=none;fillColor=none;html=1;fontSize=24;fontStyle=1;verticalAlign=middle;align=center;" vertex="1" parent="1">
          <mxGeometry x="150" y="510" width="60" height="10" as="geometry" />
        </mxCell>
        <mxCell id="JV0h0NrlIhEVmCYAis9z-38" value="&lt;font style=&quot;font-size: 13px&quot;&gt;services&lt;/font&gt;" style="text;strokeColor=none;fillColor=none;html=1;fontSize=24;fontStyle=1;verticalAlign=middle;align=center;" vertex="1" parent="1">
          <mxGeometry x="140" y="260" width="60" height="10" as="geometry" />
        </mxCell>
        <mxCell id="JV0h0NrlIhEVmCYAis9z-39" value="&lt;font style=&quot;font-size: 13px&quot;&gt;ui&lt;/font&gt;" style="text;strokeColor=none;fillColor=none;html=1;fontSize=24;fontStyle=1;verticalAlign=middle;align=center;" vertex="1" parent="1">
          <mxGeometry x="150" y="70" width="20" height="10" as="geometry" />
        </mxCell>
        <mxCell id="JV0h0NrlIhEVmCYAis9z-40" value="&lt;font style=&quot;font-size: 13px&quot;&gt;enteties&lt;/font&gt;" style="text;strokeColor=none;fillColor=none;html=1;fontSize=24;fontStyle=1;verticalAlign=middle;align=center;" vertex="1" parent="1">
          <mxGeometry x="450" y="260" width="70" height="10" as="geometry" />
        </mxCell>
      </root>
    </mxGraphModel>
  </diagram>
</mxfile>
